# xmcd
#
# Track frame offsets:
#	150
#	19955
#	35850
#	46860
#	64129
#	82003
#	96279
#	111553
#	128340
#	143265
#	160662
#	177383
#	195732
#	215659
#
# Disc length: 3113 seconds
#
# Revision: 0
# Processed by: cddbd v1.5.1PL0 Copyright (c) Steve Scherf et al.
# Submitted via: dBpowerAMP V4.0
#
DISCID=c50c270e
DTITLE=Osvaldir e Carlos Magrao - Gaucho amigo
DYEAR=1900
DGENRE=Country
TTITLE0=gaucho amigo
TTITLE1=meu canto
TTITLE2=terra que canto
TTITLE3=recurdos da 28
TTITLE4=horizontes
TTITLE5=cevando o amargo
TTITLE6=sangue de gaucho
TTITLE7=homem rural
TTITLE8=vento negro
TTITLE9=deixando o pago
TTITLE10=cantando a minha palmeira
TTITLE11=tres companheiros
TTITLE12=segredos do meu coracao
TTITLE13=prenda minha
EXTD=
EXTT0=
EXTT1=
EXTT2=
EXTT3=
EXTT4=
EXTT5=
EXTT6=
EXTT7=
EXTT8=
EXTT9=
EXTT10=
EXTT11=
EXTT12=
EXTT13=
PLAYORDER=
